<svg width="1024" height="1024" viewBox="0 0 1024 1024" fill="none" xmlns="http://www.w3.org/2000/svg">
<path d="M647.766 493.074L637.532 471.447C647.305 468.249 660.415 458.77 668.409 465.235C671.027 467.351 703.089 455.486 708.499 455.565C730.928 455.879 733.423 472.85 733.584 475.154C733.778 478.031 733.72 480.922 733.41 483.793L735.461 483.564C742.561 507.946 734.669 534.324 722.743 556.739C710.813 579.158 693.136 608.653 682.339 631.662C677.97 630.419 670.485 627.856 661.74 624.736L667.317 627.777C667.935 627.446 665.126 679.059 622.64 692.061C617.209 693.689 611.622 694.727 605.973 695.16C572.491 711.971 535.262 719.576 498.501 726.832C501.282 714.954 498.569 700.697 497.692 688.531C496.883 677.237 493.531 668.7 488.807 655.511C483.666 652.261 478.502 649.073 473.235 646.104C494.336 614.896 505.276 577.929 504.549 540.263C525.254 548.742 545.11 559.169 563.842 571.399L566.265 572.72C562.989 568.761 560.04 564.545 557.449 560.108C554.169 554.49 551.373 548.267 551.609 541.761C551.65 540.649 584.438 522.118 595.494 504.365C595.494 504.365 604.512 520.681 610.342 535.058C616.168 549.435 621.217 558.75 627.303 559.729C633.389 560.705 661.231 547.755 661.231 547.755C661.231 547.755 661.75 534.283 657.606 521.596C653.462 508.908 647.766 493.074 647.766 493.074Z" fill="#3FB185"/>
<path d="M510.999 666.962C519.079 689.671 519.123 714.298 518.13 723.89L513.037 723.364C513.976 714.295 513.932 690.477 506.173 668.676L510.999 666.962ZM523.574 675.096C525.004 684.08 527.581 706.11 526.329 722.118L521.222 721.722C522.427 706.328 519.932 684.78 518.516 675.902L523.574 675.096ZM535.033 553.653C531.718 600.187 510.918 645.864 500.896 662.969L496.479 660.381C506.255 643.694 526.687 598.781 529.926 553.291L535.033 553.653ZM522.915 547.84C522.11 559.903 519.475 579.659 514.188 599.873C508.914 620.026 500.92 640.956 489.226 655.115L485.28 651.851C496.25 638.567 504.016 618.51 509.231 598.576C514.433 578.704 517.021 559.272 517.809 547.499L522.915 547.84Z" fill="white"/>
<path d="M308.2 625.565C311.586 628.706 315.162 631.75 317.639 635.648C319.703 638.898 320.919 642.598 322.394 646.155C327.007 657.245 334.226 667.054 343.44 674.755L343.765 674.178C370.723 662.887 396.255 648.455 419.831 631.18C400.235 602.696 381.134 582.11 368.208 550.059C354.25 558.811 349.018 564.825 332.203 572.331C322.152 563.491 297.483 540.242 268.418 566.027C276.867 588.698 290.489 609.082 308.2 625.565Z" fill="#3FB185"/>
<path d="M394.133 626.003C396.336 628.946 399.285 630.461 400.718 629.388C402.152 628.315 401.528 625.059 399.324 622.116C397.121 619.174 394.173 617.658 392.739 618.732C391.306 619.805 391.93 623.061 394.133 626.003Z" fill="white"/>
<path d="M353.676 771.737C340.671 768.597 307.993 759.548 294.32 795.921C312.377 812.038 333.947 823.715 357.314 830.03C361.772 831.225 366.353 832.252 370.367 834.542C373.705 836.45 376.504 839.157 379.47 841.615C388.731 849.267 399.701 854.575 411.45 857.087V856.425C430.022 833.853 445.87 809.171 458.66 782.888C428.052 766.839 401.555 757.548 375.132 735.235C366.865 749.489 365.066 757.237 353.676 771.737Z" fill="#3FB185"/>
<path d="M430.903 789.832C433.809 792.083 437.054 792.761 438.151 791.345C439.248 789.93 437.781 786.957 434.876 784.705C431.97 782.454 428.725 781.776 427.628 783.192C426.531 784.607 427.997 787.58 430.903 789.832Z" fill="white"/>
<path d="M690.644 419.878C691.609 416.601 687.452 412.485 681.356 410.689C675.26 408.89 669.535 410.095 668.566 413.372C667.6 416.652 671.761 420.769 677.857 422.564C683.953 424.36 689.678 423.158 690.644 419.878Z" fill="#3FB185"/>
<path d="M688.155 376.494C679.376 379.389 671.427 384.355 664.979 390.977L667.648 390.274C660.637 387.492 651.916 391.4 652.237 399.674C652.329 402.033 651.186 403.408 649.953 405.344C648.892 407.027 647.902 408.747 647.011 410.525C645.352 413.805 644.024 417.246 643.055 420.796C641.109 427.957 640.826 434.736 643.393 441.808C646.008 448.99 650.643 454.885 656.316 459.933C658.572 461.961 661.009 463.78 663.593 465.367C664.341 465.825 665.102 466.251 665.88 466.671C666.075 466.818 666.29 466.941 666.515 467.04C666.924 467.135 666.252 466.982 666.276 466.835C666.204 467.33 666.01 463.152 665.767 464.524C665.156 467.972 670.437 469.453 671.055 465.982C671.625 462.783 668.075 461.701 665.894 460.339C660.763 457.131 656.302 452.963 652.752 448.065C649.059 442.849 646.444 436.105 646.892 429.63C647.349 422.97 650.022 416.14 653.326 410.406C654.357 408.61 655.633 406.934 656.592 405.101C657.613 403.146 657.756 401.483 657.702 399.326C657.582 394.636 662.89 394.261 666.191 395.571C666.655 395.708 667.15 395.715 667.621 395.588C668.092 395.466 668.518 395.216 668.856 394.868C674.622 388.902 681.742 384.417 689.613 381.795C692.948 380.689 691.518 375.399 688.155 376.508V376.494Z" fill="#006EEF"/>
<path d="M666.563 424.086C663.02 425.373 659.292 426.073 655.524 426.161C652.002 426.233 651.991 431.715 655.524 431.643C659.784 431.558 664.006 430.786 668.02 429.36C671.321 428.182 669.898 422.881 666.563 424.072V424.086Z" fill="#006EEF"/>
<path d="M731.506 433.08C728.376 431.527 724.908 430.793 721.419 430.94C719.511 431.032 717.763 433.268 719.05 435.053C720.45 437.033 721.73 439.091 722.89 441.221C724.573 444.324 729.311 441.559 727.621 438.456C726.464 436.326 725.184 434.268 723.785 432.288L721.419 436.401C723.931 436.234 726.444 436.709 728.727 437.77C731.888 439.296 734.666 434.572 731.468 433.039L731.506 433.08Z" fill="#006EEF"/>
<path d="M677.813 404.715C680.687 402.005 681.943 398.67 680.619 397.264C679.291 395.858 675.888 396.912 673.014 399.619C670.14 402.326 668.884 405.661 670.208 407.07C671.533 408.477 674.939 407.422 677.813 404.715Z" fill="#006EEF"/>
<path d="M733.103 471.32C733.103 471.32 737.246 484.789 736.987 502.388C736.728 519.984 730.133 536.576 730.133 536.576C730.133 536.576 755.644 564.548 767.041 564.804C778.442 565.06 778.695 542.273 778.695 542.273C778.695 542.273 795.014 553.151 812.627 558.333C830.236 563.511 835.158 554.189 835.158 554.189C835.158 554.189 855.392 530.255 835.769 503.416C816.149 476.577 813.668 475.447 813.668 475.447C813.668 475.447 836.243 485.434 845.92 476.123C857.87 464.62 847.497 438.252 808.459 402.166C769.424 366.08 725.395 343.071 702.656 346.689C679.913 350.307 671.796 368.794 683.07 389.089C694.344 409.389 700.765 410.563 700.765 410.563C700.765 410.563 681.043 429.995 691.416 435.555C701.925 441.173 715.323 423.523 715.323 423.523C715.323 423.523 720.507 417.734 727.955 418.495C738.639 419.571 747.599 423.445 748.251 433.681C748.906 443.921 743.578 450.106 735.168 452.038C726.757 453.97 724.569 455.871 717.128 452.038C709.687 448.205 707.882 444.597 707.882 444.597C707.882 444.597 700.471 445.966 698.137 453.482C695.802 460.998 712.903 455.236 718.238 456.895C718.238 456.895 727.15 459.179 730.116 463.582C733.082 467.985 733.103 471.32 733.103 471.32Z" fill="#006EEF"/>
<path d="M529.654 412.675C524.933 411.364 521.431 407.48 520.059 402.841C518.523 397.738 519.806 392.332 522.53 387.877C528.469 378.183 541.034 373.473 551.919 372.715C564.173 371.862 574.303 378.924 582.072 387.754C590.257 397.052 596.818 407.951 603.3 418.461C622.862 450.174 641.099 483.181 653.643 518.376C656.718 526.991 659.463 535.791 661.142 544.795C662.309 551.058 663.17 557.957 661.497 564.091C660.582 567.5 665.856 568.958 666.784 565.548C668.501 559.254 667.907 552.53 666.914 546.164C665.6 537.733 663.2 529.476 660.487 521.403C654.237 502.828 646.106 484.857 637.307 467.36C627.886 448.628 617.284 430.469 606.17 412.696C593.486 392.407 577.068 363.813 549.011 367.541C535.897 369.288 521.776 375.535 516.116 388.294C513.563 394.059 513.068 400.565 515.536 406.449C517.847 411.969 522.352 416.344 528.172 417.962C531.575 418.911 533.029 413.621 529.63 412.675H529.654Z" fill="#006EEF"/>
<path d="M530.709 416.56C533.197 413.904 534.409 410.689 535.801 407.395C536.863 404.9 539.054 400.432 542.426 400.804C546.205 401.22 546.396 407.262 546.761 409.941C547.137 413.535 548.342 416.997 550.277 420.052C552.213 423.106 554.827 425.673 557.916 427.551C561.384 429.745 564.391 431.397 566.48 435.087C570.692 442.539 573.949 450.7 577.444 458.51C584.632 474.638 591.316 490.981 597.49 507.539C603.15 522.701 607.321 539.313 616.472 552.864C618.663 556.11 621.148 559.647 624.8 561.36C628.958 563.316 633.525 562.186 637.72 560.957C646.724 558.302 655.336 554.458 663.33 549.536C666.33 547.71 663.579 542.955 660.562 544.805C653.333 549.27 645.571 552.8 637.454 555.312C633.941 556.384 629.46 558.158 626.111 555.803C623.159 553.731 621.087 550.1 619.285 547.069C615.086 540.044 612.212 532.36 609.485 524.684C606.594 516.536 603.679 508.399 600.6 500.323C594.295 483.785 587.489 467.449 580.178 451.307C578.352 447.3 576.509 443.307 574.648 439.323C572.955 435.732 571.416 431.978 568.876 428.885C566.337 425.793 562.61 424.288 559.408 421.949C556.554 419.85 554.387 416.956 553.182 413.628C551.677 409.436 552.202 404.787 550.178 400.749C548.533 397.462 545.273 395.032 541.498 395.353C537.597 395.687 534.405 398.575 532.46 401.804C530.354 405.299 529.719 409.631 526.845 412.672C524.431 415.242 528.295 419.127 530.719 416.549L530.709 416.56Z" fill="#006EEF"/>
<path d="M643.223 485.188C651.957 482.256 659.982 477.751 667.703 472.784C674.915 468.152 682.087 463.729 690.303 461.083C699.566 458.097 711.773 456.332 720.801 460.967C724.501 462.845 727.47 465.896 729.245 469.647C729.815 470.893 730.256 472.197 730.563 473.535C730.669 473.989 730.754 474.488 730.836 474.969C730.918 475.447 730.778 474.242 730.836 474.873C730.897 475.501 730.918 476.075 730.942 476.699C731.587 494.159 722.381 510.42 711.895 523.721C705.372 531.999 697.798 539.385 689.361 545.7C685.149 548.861 680.814 551.851 676.472 554.837C674.342 556.298 672.209 557.756 670.079 559.21L666.522 561.65L665.099 562.627L664.389 563.111C663.535 563.634 663.426 563.743 664.064 563.432L666.71 565.443L666.628 565.152L666.348 567.269L666.536 567.013L663.44 568.269L663.658 568.337C667.048 569.344 668.495 564.053 665.116 563.053L664.897 562.982C663.644 562.613 662.511 563.262 661.805 564.245C661.532 564.623 661.358 565.064 661.293 565.525C661.224 565.985 661.272 566.456 661.426 566.9C661.791 568.163 662.836 568.781 664.064 568.914C666.266 569.146 668.304 567.057 670.004 565.897L676.4 561.507C680.51 558.671 684.688 555.848 688.736 552.909C696.778 547.103 704.43 540.819 710.984 533.333C723.156 519.434 734.065 502.726 736.11 483.939C737.096 474.866 735.601 465.821 728.341 459.544C719.603 451.977 706.83 451.843 696.017 453.943C687.255 455.649 678.875 459.325 671.28 463.957C661.637 469.832 652.548 476.293 641.721 479.922C638.396 481.034 639.819 486.315 643.178 485.205L643.223 485.188Z" fill="#006EEF"/>
<path d="M594.377 497.903C587.237 510.966 575.3 521.148 563.483 529.882C559.691 532.678 555.776 535.282 551.933 537.996C551.018 538.655 549.823 539.317 549.246 540.344C548.331 542.017 548.912 544.727 549.188 546.512C549.594 549.048 550.301 551.526 551.298 553.895C558.012 570.341 571.477 584.141 585.694 594.381C592.957 599.572 600.706 604.051 608.833 607.751C616.762 611.406 625.019 614.246 633.204 617.253C649.195 623.141 665.184 629.589 681.629 634.303C682.708 634.61 684.216 634.115 684.721 633.044C693.719 613.946 704.369 595.654 714.646 577.239C724.924 558.824 735.522 540.313 739.352 519.298C741.557 507.184 741.502 494.745 738.12 482.85C737.154 479.467 731.863 480.904 732.832 484.308C738.772 505.149 733.638 527.179 724.821 546.437C720.681 555.479 715.684 564.135 710.84 572.815C705.679 582.069 700.46 591.292 695.364 600.583C690.005 610.355 684.742 620.196 679.991 630.279L683.086 629.016C669.437 625.107 656.135 619.841 642.795 614.956C626.842 609.109 610.724 603.754 596.197 594.78C581.738 585.861 568.924 574.024 560.21 559.339C557.725 555.155 555.455 550.7 554.636 545.853C554.493 544.765 554.407 543.672 554.373 542.573C554.291 542.573 553.51 544.017 553.82 543.409C554.588 542.812 553.878 543.297 553.82 543.409C554.066 543.222 554.318 543.044 554.568 542.867C558.186 540.29 561.879 537.842 565.477 535.224C578.355 525.817 591.394 514.894 599.156 500.698C600.846 497.602 596.118 494.834 594.425 497.93L594.377 497.903Z" fill="#006EEF"/>
<path d="M668.047 630.388L665.938 630.108C665.453 629.794 664.456 628.541 664.627 627.957C664.593 628.066 664.654 628.217 664.627 628.333C664.576 628.739 664.603 629.172 664.576 629.582C664.545 630.145 664.494 630.702 664.436 631.265C664.351 632.101 664.235 633.016 664.211 633.156C663.555 637.672 662.552 642.129 661.21 646.492C657.527 658.544 651.22 669.965 641.703 678.382C627.722 690.745 608.573 693.592 590.51 692.5C573.382 691.462 556.343 687.11 540.296 681.123C516.54 672.266 496.486 656.09 474.6 643.703L475.58 647.454C492.09 622.923 502.528 594.81 506.023 565.449C507.023 557.079 507.44 548.655 507.272 540.231L503.801 542.87C524.274 551.307 543.911 561.64 562.459 573.74C565.422 575.672 568.173 570.931 565.227 569.006C546.263 556.683 526.186 546.167 505.259 537.593C503.593 536.913 501.757 538.627 501.791 540.238C502.548 577.423 491.735 613.925 470.849 644.696C470.026 645.911 470.606 647.758 471.828 648.447C492.582 660.193 511.604 675.058 533.685 684.363C550.769 691.565 569.46 696.33 587.933 697.808C607.454 699.374 627.978 696.538 643.611 683.929C654.575 675.071 661.886 662.367 666.146 649.072C667.815 643.86 669.01 638.511 669.71 633.084C670.054 630.391 671.3 624.404 666.573 625.131C663.095 625.674 664.573 630.958 668.03 630.415L668.047 630.388Z" fill="#006EEF"/>
<path d="M486.162 656.216C490.05 667.043 494.101 677.689 495.013 689.271C495.962 701.402 498.562 714.007 495.863 726.077C495.405 728.207 497.149 729.859 499.231 729.449C528.132 723.749 557.2 717.882 584.807 707.365C592.552 704.43 600.143 701.105 607.554 697.405C610.708 695.825 607.932 691.094 604.785 692.674C578.711 705.733 550.343 713.232 521.944 719.257C513.902 720.971 505.84 722.575 497.774 724.162L501.146 727.534C503.976 714.895 501.495 701.951 500.494 689.271C499.539 677.164 495.518 666.108 491.449 654.759C490.268 651.461 484.971 652.881 486.162 656.216Z" fill="#006EEF"/>
<path d="M476.897 634.842C467.449 636.392 457.448 637.672 448.427 640.979C439.706 644.174 432.606 650.182 426.472 657.022C413.529 671.457 404.746 688.964 395.674 705.935L378.453 738.154C376.788 741.26 381.519 744.031 383.184 740.895C392.629 723.237 401.756 705.362 411.655 687.95C416.225 679.936 421.103 672.044 426.926 664.88C432.606 657.903 439.149 651.083 447.427 647.25C452.356 644.966 457.807 643.942 463.101 642.887C468.173 641.874 473.255 640.945 478.355 640.106C481.83 639.539 480.355 634.252 476.897 634.818V634.842Z" fill="#006EEF"/>
<path d="M496.965 715.854C488.837 717.517 480.693 719.053 472.508 720.394C469.03 720.957 470.504 726.241 473.966 725.681C482.151 724.35 490.295 722.8 498.422 721.138C501.876 720.435 500.415 715.151 496.965 715.854Z" fill="#006EEF"/>
<path d="M472.791 711.475C464.07 733.188 454.916 754.719 445.321 776.073C443.891 779.271 448.611 782.056 450.059 778.841C459.841 757.06 469.18 735.092 478.075 712.933C479.393 709.656 474.092 708.236 472.791 711.475Z" fill="#006EEF"/>
<path d="M376.238 562.07C394.881 554.168 412.385 543.713 431.698 537.398C436.388 535.845 441.17 534.579 446.013 533.606C450.096 532.804 454.594 531.838 458.769 532.101C461.459 532.268 464.169 532.913 466.8 533.47C469.633 534.081 472.579 534.685 475.286 535.753C479.744 537.518 484.324 540.324 488.584 542.768C493.5 545.614 498.312 548.632 503.129 551.649C506.125 553.53 508.88 548.789 505.897 546.915C497.097 541.406 488.263 535.808 478.856 531.381C473.344 528.783 466.882 527.674 460.882 526.855C457.363 526.397 453.895 526.855 450.372 527.339C445.068 528.09 439.821 529.22 434.681 530.725C424.598 533.654 414.884 537.774 405.391 542.238C394.735 547.263 384.31 552.745 373.459 557.312C372.087 557.892 371.811 559.892 372.476 561.063C373.282 562.483 374.869 562.619 376.224 562.046L376.238 562.07Z" fill="#006EEF"/>
<path d="M416.055 624.169C432.777 616.052 449.102 607.212 465.166 597.866C468.217 596.095 465.456 591.35 462.425 593.132C446.358 602.481 430.032 611.315 413.31 619.438C410.139 620.978 412.911 625.705 416.078 624.169H416.055Z" fill="#006EEF"/>
<path d="M445.658 606.658C456.236 616.823 467.623 626.111 479.706 634.433C481.99 636.027 484.823 632.934 483.457 630.681L482.894 629.767C481.068 626.756 476.32 629.507 478.163 632.535L478.723 633.45L482.471 629.698C470.784 621.629 459.766 612.628 449.532 602.781C446.996 600.334 443.136 604.201 445.658 606.658Z" fill="#006EEF"/>
<path d="M345.364 672.813C338.842 667.355 333.319 660.808 329.04 653.462C324.672 645.922 322.817 637.017 317.015 630.347C314.233 627.149 310.944 624.463 307.911 621.534C304.877 618.605 301.835 615.414 298.998 612.171C286.939 598.347 277.461 582.472 271.016 565.299L270.308 567.962C276.124 562.876 282.848 558.824 290.537 557.418C296.12 556.404 301.867 557.159 307.193 559.012C316.047 562.094 323.293 568.149 330.218 574.27C330.658 574.679 331.215 574.939 331.811 575.014C332.406 575.092 333.011 574.98 333.539 574.696C340.207 571.716 346.593 568.146 352.621 564.026C358.263 560.155 363.745 556.073 369.523 552.424L365.496 550.782C371.599 565.801 379.658 579.738 388.887 593.033C398.113 606.328 408.193 619.179 417.416 632.562L418.399 628.811C395.014 645.939 369.708 660.275 342.995 671.526C341.626 672.106 340.671 673.355 341.082 674.898C341.425 676.192 343.091 677.39 344.452 676.813C371.636 665.433 397.393 650.913 421.198 633.546C422.321 632.723 423.089 631.115 422.181 629.794C404.077 603.525 382.962 579.198 370.814 549.328C370.179 547.768 368.435 546.656 366.789 547.69C360.997 551.346 355.508 555.421 349.887 559.295C343.859 563.415 337.473 566.986 330.807 569.962L334.129 570.392C328.258 565.221 322.251 560.125 315.252 556.544C306.115 551.871 295.722 550.059 285.704 552.926C278.454 555.001 272.094 559.162 266.466 564.088C266.116 564.426 265.865 564.852 265.74 565.323C265.615 565.794 265.622 566.289 265.758 566.757C271.885 583.148 280.653 598.422 291.715 611.984C297.303 618.834 303.594 624.835 309.957 630.917C313.397 634.081 316.109 637.952 317.906 642.267C319.583 646.328 321.145 650.394 323.233 654.268C327.866 662.818 334.065 670.42 341.507 676.68C344.19 678.936 348.084 675.082 345.384 672.802L345.364 672.813Z" fill="#006EEF"/>
<path d="M266.453 564.088C263.406 566.481 260.089 568.461 258.412 572.137C256.178 577.038 257.906 582.52 259.678 587.278C263.415 597.327 269.038 606.465 275.9 614.663C279.436 618.869 283.273 622.808 287.381 626.456C289.409 628.283 291.57 630.017 293.187 632.218C295.015 634.689 296.157 637.608 297.408 640.379C301.94 650.432 307.308 660.156 314.037 668.925C317.686 673.741 321.78 678.203 326.267 682.251C328.515 684.251 330.767 685.906 333.791 684.289C337.085 682.534 340.187 680.083 343.289 678.029C346.218 676.086 343.477 671.342 340.52 673.291L333.028 678.24C332.531 678.568 332.037 678.906 331.535 679.227C330.516 679.868 331.557 679.513 330.982 679.124C329.881 678.377 328.862 677.24 327.898 676.315C324.33 672.898 321.041 669.198 318.062 665.256C312.018 657.252 307.098 648.435 302.909 639.345C300.73 634.625 298.838 629.904 295.143 626.136C291.629 622.579 287.719 619.456 284.265 615.821C277.424 608.707 271.748 600.56 267.444 591.678C266.266 589.2 265.228 586.657 264.333 584.066C263.47 581.561 262.538 578.868 262.876 576.171C263.369 572.246 267.531 570.164 270.327 567.949C273.123 565.733 269.194 561.914 266.453 564.074V564.088Z" fill="#006EEF"/>
<path d="M412.163 854.419C403.732 852.606 395.691 849.323 388.406 844.715C381.18 840.148 375.501 833.294 367.391 830.147C363.281 828.532 358.885 827.655 354.645 826.412C350.542 825.214 346.494 823.842 342.504 822.303C334.508 819.2 326.791 815.425 319.437 811.015C311.183 806.083 303.411 800.382 296.225 793.993L296.933 796.655C300.807 786.528 307.609 777.236 318.121 773.424C325.887 770.611 334.357 770.717 342.412 772.089C345.948 772.693 349.433 773.543 352.918 774.376C353.782 774.584 354.99 774.431 355.584 773.673C360.188 767.836 364.264 761.603 367.766 755.046C371.009 748.906 373.989 742.639 377.46 736.618L373.156 737.174C385.549 747.595 399.196 756.156 413.566 763.604C427.991 771.086 442.839 777.718 457.24 785.251L456.257 781.503C443.559 807.561 427.858 832.048 409.477 854.463C407.255 857.17 411.112 861.071 413.354 858.337C432.066 835.591 448.054 810.731 460.988 784.271C461.616 782.988 461.397 781.247 460.008 780.52C431.725 765.727 401.722 754.06 377.03 733.297C375.705 732.181 373.668 732.218 372.729 733.85C369.36 739.697 366.445 745.762 363.315 751.739C360.018 758.095 356.147 764.136 351.757 769.792L354.427 769.089C346.829 767.263 339.154 765.577 331.297 765.672C321.068 765.795 311.132 769.058 303.621 776.178C298.093 781.414 294.388 788.152 291.693 795.197C291.557 795.665 291.55 796.16 291.675 796.631C291.8 797.102 292.051 797.529 292.401 797.867C305.458 809.496 320.338 818.903 336.445 825.706C344.562 829.126 352.891 831.526 361.339 833.929C365.865 835.209 369.8 837.035 373.436 840.045C376.815 842.837 380.078 845.711 383.71 848.183C391.888 853.712 401.046 857.627 410.692 859.723C414.133 860.477 415.597 855.19 412.15 854.436L412.163 854.419Z" fill="#006EEF"/>
<path d="M291.954 794.536C290.09 798.693 287.642 802.69 288.519 807.449C289.483 812.678 293.937 816.583 297.779 819.883C305.829 826.788 315.079 832.048 324.929 835.936C329.899 837.878 334.995 839.476 340.183 840.722C342.979 841.408 345.744 842.063 348.256 843.507C350.768 844.947 352.891 846.753 355.107 848.48C363.865 855.252 373.19 861.369 383.304 865.919C388.834 868.476 394.599 870.483 400.521 871.906C403.651 872.629 405.917 872.264 407.682 869.404C409.549 866.366 411.136 863.099 412.847 859.969C414.56 856.839 409.809 854.105 408.116 857.201L404.259 864.291C403.9 864.946 403.549 865.602 403.18 866.257L402.968 866.649C402.637 867.315 402.569 867.37 402.76 866.813C401.61 866.864 400.098 866.168 398.975 865.857C394.193 864.526 389.527 862.806 385.028 860.714C376.245 856.648 368.047 851.412 360.322 845.616C356.308 842.606 352.553 839.155 347.853 837.271C343.286 835.441 338.26 834.697 333.55 833.209C324.459 830.386 315.837 826.229 307.966 820.873C303.741 817.958 299.09 814.555 295.933 810.452C294.298 808.333 293.375 806.08 294.047 803.414C294.59 801.246 295.769 799.328 296.673 797.311C298.103 794.113 293.384 791.324 291.94 794.543L291.954 794.536Z" fill="#006EEF"/>
<path d="M525.817 414.819C521.998 427.097 526.271 441.392 536.46 449.345C547 457.568 562.538 458.025 573.641 450.642C576.563 448.696 573.819 443.945 570.873 445.911C561.637 452.069 548.622 452.031 539.784 445.037C531.33 438.337 527.909 426.489 531.104 416.256C532.156 412.877 526.865 411.433 525.821 414.798L525.817 414.819Z" fill="#006EEF"/>
<path d="M514.277 394.312C506.747 406.528 504.375 423.264 512.376 435.934C518.547 445.713 529.254 452.424 540.928 452.571C544.454 452.612 544.457 447.127 540.928 447.086C531.221 446.963 522.247 441.307 517.106 433.166C510.123 422.107 512.471 407.689 519.008 397.077C520.865 394.063 516.127 391.308 514.277 394.309V394.312Z" fill="#006EEF"/>
<path d="M543.498 454.67L561.08 486.943C566.562 497.022 571.924 507.235 578.693 516.53C580.751 519.359 585.51 516.622 583.427 513.789C576.659 504.487 571.303 494.278 565.811 484.195L548.236 451.905C546.546 448.809 541.815 451.574 543.498 454.673V454.67Z" fill="#006EEF"/>
<path d="M640.088 473.801C645.812 473.07 650.963 471.347 656.26 469.135C658.595 468.162 661.285 466.78 663.828 466.476C664.357 466.445 664.893 466.507 665.401 466.66C665.787 466.793 666.18 466.899 666.582 466.971C667.217 467.012 667.156 467.582 666.63 466.619C668.316 469.722 673.054 466.957 671.368 463.851C670.484 462.223 668.292 461.68 666.623 461.318C664.012 460.752 661.995 461.196 659.455 462.052C652.936 464.24 647.014 467.432 640.088 468.319C636.634 468.777 636.593 474.258 640.088 473.801Z" fill="#006EEF"/>
<path d="M517.253 438.514C496.176 444.405 474.593 449.58 452.761 451.631C445.453 452.321 437.961 452.737 430.633 451.905C428.233 451.655 425.868 451.15 423.577 450.392C422.058 449.894 420.659 449.089 419.468 448.024C418.829 447.355 418.447 446.481 418.389 445.559C418.389 445.235 418.389 444.921 418.42 444.6C418.362 445.382 418.471 444.341 418.529 444.143C418.689 443.497 418.908 442.866 419.181 442.255C421.157 438.258 424.205 435.217 427.581 432.175C439.002 421.867 452.918 414.126 466.466 406.999C485.929 396.766 506.183 388.038 526.769 380.269C549.447 371.623 572.6 364.284 596.115 358.28C614.219 353.713 632.729 349.75 651.393 348.498C657.415 348.091 663.644 347.904 669.607 348.706C671.904 348.993 674.16 349.528 676.345 350.3C677 350.542 677.628 350.849 678.226 351.211C678.56 351.399 678.881 351.607 679.192 351.829C679.772 352.242 678.908 351.583 679.236 351.863C679.424 352.02 679.601 352.181 679.779 352.351C679.96 352.519 680.567 353.297 680.13 352.696C680.315 352.959 680.485 353.229 680.642 353.505C681.021 354.164 680.588 353.15 680.813 353.911C680.871 354.113 680.922 354.314 680.973 354.519C681.134 355.188 680.973 353.938 680.973 354.631C681.031 356.079 680.676 357.512 679.953 358.768C677.478 363.537 673.15 367.336 669.075 370.712C654.38 382.901 636.808 391.925 619.711 400.189C614.229 402.841 608.689 405.391 603.098 407.849C599.9 409.269 602.641 413.993 605.866 412.58C626.353 403.534 646.902 393.56 665.194 380.528C670.935 376.415 676.737 371.998 681.243 366.52C684.025 363.141 686.851 358.912 686.421 354.311C685.482 344.344 671.686 343.118 664.112 342.794C646.779 342.053 629.115 345.323 612.246 348.907C588.325 353.983 564.797 360.956 541.723 369.008C518.765 377.03 496.135 386.171 474.293 396.875C458.468 404.64 442.689 413.156 428.769 424.052C424.274 427.571 419.925 431.414 416.542 436.05C414.259 439.183 412.378 443.057 413.057 447.034C414.856 457.479 430.94 457.786 438.825 457.816C459.352 457.895 480.071 453.522 499.92 448.716C506.207 447.194 512.461 445.556 518.683 443.805C522.072 442.856 520.635 437.565 517.226 438.521L517.253 438.514Z" fill="#006EEF"/>
<path d="M418.673 446.789L416.246 437.474C415.826 435.849 415.42 434.217 414.977 432.589L414.744 431.767C414.686 431.562 414.639 431.357 414.587 431.145C414.499 430.76 414.587 431.664 414.587 430.958C414.587 430.708 414.587 430.456 414.587 430.2C414.587 429.643 414.587 430.063 414.587 430.05C414.68 429.531 414.806 429.019 414.963 428.514C415.052 428.23 415.161 427.947 415.274 427.671C415.072 428.159 415.355 427.507 415.434 427.346C415.727 426.769 416.038 426.21 416.376 425.66C417.997 423.042 420.12 420.81 422.489 418.571C429.606 411.833 437.962 406.409 446.321 401.371C457.906 394.391 469.986 388.236 482.243 382.529C512.792 368.302 544.687 356.714 577.11 347.549C591.729 343.409 606.564 339.783 621.541 337.088C632.72 335.077 644.079 333.483 655.453 333.387C661.849 333.332 669.649 333.528 674.81 336.64C675.035 336.781 675.253 336.933 675.465 337.096C675.465 337.096 675.298 336.932 675.66 337.275C675.861 337.462 676.052 337.654 676.24 337.85C676.697 338.307 676.24 337.745 676.428 338.06C676.574 338.28 677.162 339.431 676.885 338.741C677.008 339.038 677.103 339.349 677.213 339.655C678.561 343.348 679.906 347.037 681.244 350.727L682.329 353.71C683.524 357.001 688.825 355.581 687.617 352.253L684.084 342.552C683.227 340.185 682.561 337.325 681.124 335.242C677.493 329.929 669.84 328.818 663.952 328.27C653.493 327.288 642.837 328.444 632.474 329.874C617.933 331.875 603.546 334.995 589.33 338.627C555.196 347.389 521.841 358.95 489.602 373.187C476.126 379.054 462.951 385.591 450.127 392.776C440.46 398.258 430.941 404.197 422.377 411.328C417.352 415.533 411.543 420.748 409.587 427.258C408.962 429.37 408.962 431.62 409.587 433.733C410.601 437.47 411.543 441.228 412.516 444.976L413.365 448.236C414.277 451.649 419.547 450.202 418.649 446.778L418.673 446.789Z" fill="#006EEF"/>
<path d="M417.376 424.141C422.182 413.188 426.152 401.889 429.255 390.335C431.995 380.351 434.105 370.145 435.023 359.82C435.89 350.031 435.085 340.632 433.05 331.039C428.418 309.174 421.936 287.757 417.567 265.829C415.547 255.696 413.871 245.408 413.656 235.056C413.441 224.704 415.485 214.672 419.284 205.041C423.298 194.698 429.517 185.353 437.508 177.658C445.092 170.449 453.906 165.94 463.828 162.811C474.444 159.458 485.756 157.521 496.869 159.024C506.171 160.298 514.851 164.031 522.517 169.435C539.959 181.734 551.923 200.998 562.262 219.231C571.771 236.048 579.557 253.828 589.395 270.447C599.102 286.853 614.124 299.498 629.505 310.398C641.475 318.873 654.057 326.443 667.154 333.044C667.847 333.391 668.526 333.738 669.236 334.076C672.403 335.593 675.175 330.878 672.004 329.343C662.15 324.62 652.644 319.037 643.445 313.167C626.76 302.522 609.7 290.087 598.075 273.814C593.562 267.496 590.026 260.47 586.476 253.59C581.715 244.367 577.093 235.074 572.195 225.928C561.893 206.682 550.469 186.914 534.276 171.962C527.036 165.269 518.745 159.723 509.417 156.429C499.791 153.03 489.428 152.381 479.352 153.688C468.115 155.177 456.377 158.471 446.512 164.108C437.569 169.234 430.026 176.558 424.036 184.899C417.233 194.517 412.434 205.407 409.928 216.92C407.809 226.454 407.86 236.107 408.891 245.769C411.304 268.469 417.571 290.612 423.1 312.696C425.534 322.436 428.459 332.418 429.541 342.422C430.634 352.516 429.579 362.79 427.715 372.729C424.722 388.721 419.701 404.361 413.499 419.369L413.249 419.953C413.488 419.407 412.993 420.574 413.249 419.953L412.922 420.724C412.83 420.936 412.737 421.147 412.642 421.356C411.219 424.554 415.943 427.346 417.376 424.124V424.141Z" fill="#006EEF"/>
<path d="M426.155 135.232L440.662 167.348C442.109 170.546 446.836 167.773 445.393 164.58L430.889 132.464C429.442 129.266 424.711 132.039 426.155 135.232Z" fill="#006EEF"/>
<path d="M453.089 141.965L462.059 161.153C463.551 164.351 468.275 161.564 466.79 158.384L457.823 139.197C456.335 135.999 451.604 138.786 453.089 141.965Z" fill="#006EEF"/>
<path d="M420.714 440.723C429.305 444.314 439.395 444.328 448.536 443.857C456.366 443.45 464.36 442.587 471.996 440.723C475.423 439.887 473.969 434.596 470.538 435.436C463.37 437.19 455.919 437.996 448.536 438.375C439.822 438.832 430.363 438.859 422.171 435.436C420.802 434.862 419.171 436.057 418.802 437.351C418.345 438.921 419.359 440.157 420.714 440.723Z" fill="#006EEF"/>
<path d="M490.295 436.634C496.811 435.108 503.245 433.255 509.577 431.081C512.891 429.944 511.468 424.646 508.119 425.797C501.787 427.971 495.353 429.821 488.841 431.347C485.407 432.152 486.861 437.44 490.295 436.634Z" fill="#006EEF"/>
<path d="M596.08 400.697C617.581 392.075 638.764 382.064 657.394 368.147C660.19 366.059 657.459 361.293 654.653 363.413C636.412 377.036 615.704 386.969 594.647 395.393C591.411 396.69 592.821 401.994 596.104 400.68L596.08 400.697Z" fill="#006EEF"/>
<path d="M574.243 843.588C543.926 856.48 513.254 868.256 481.045 875.568C441.492 884.552 400.439 888.815 359.896 886.613C336.101 885.378 312.512 881.558 289.542 875.223C286.139 874.274 284.686 879.565 288.085 880.51C329.493 892.058 372.976 894.771 415.707 891.153C452.711 888.02 489.514 880.875 524.692 868.874C542.431 862.826 559.76 855.658 577.001 848.316C578.37 847.732 578.65 845.735 577.984 844.564C577.175 843.144 575.584 843.001 574.233 843.578L574.243 843.588Z" fill="#006EEF"/>
<path d="M714.796 744.308C696.217 768.3 672.819 788.132 646.106 802.533C643 804.212 645.765 808.926 648.874 807.27C676.372 792.364 700.436 771.857 719.516 747.076C720.428 745.892 719.691 744.014 718.533 743.325C717.131 742.485 715.683 743.141 714.782 744.308H714.796Z" fill="#006EEF"/>
<path d="M719.124 668.466C709.137 692.288 693.152 713.321 675.136 731.64C658.804 748.25 640.61 762.927 620.919 775.382C612.952 780.407 604.719 785.131 596.09 788.94C592.892 790.36 595.657 795.091 598.855 793.674C616.581 785.851 632.948 774.669 648.195 762.831C668.405 747.151 686.933 729.084 702.187 708.505C711.116 696.585 718.574 683.632 724.398 669.924C724.974 668.555 723.776 666.924 722.486 666.552C720.909 666.098 719.68 667.111 719.114 668.466H719.124Z" fill="#006EEF"/>
<path d="M499.866 829.136L483.284 835.328C480.007 836.547 481.424 841.851 484.742 840.612L501.324 834.424C504.601 833.198 503.184 827.897 499.866 829.136Z" fill="#006EEF"/>
<path d="M282.059 837.113C253.833 831.201 226.315 822.306 199.969 810.571C192.407 807.195 184.955 803.587 177.612 799.754C174.487 798.129 171.714 802.857 174.843 804.488C200.835 818.043 228.193 828.798 256.458 836.57C264.444 838.758 272.492 840.704 280.602 842.404C284.042 843.127 285.513 837.837 282.059 837.113Z" fill="#006EEF"/>
<path d="M462.773 407.972C462.773 407.972 479.806 394.571 496.388 402.514C505.717 406.989 508.539 423.407 508.85 429.626C509.161 435.842 506.881 444.13 506.881 444.13L516.646 439.563C516.646 439.563 508.539 425.121 508.85 417.174C509.161 409.232 515.202 393.879 515.202 393.879L521.298 379.399L462.773 407.972Z" fill="#006EEF"/>
<path d="M561.992 477.45C561.992 476.761 560.09 475.04 562.855 467.35C565.62 459.663 576.324 455.564 576.324 455.564L573.733 449.826C573.733 449.826 560.613 454.485 555.257 454.14C552.653 454.021 550.059 453.734 547.492 453.284L561.992 477.45Z" fill="#006EEF"/>
<path d="M431.531 378.668C431.531 379.358 425.534 393.363 430.247 398.049C434.657 402.429 439.631 399.418 439.631 399.418L421.444 412.703L431.531 378.668Z" fill="#006EEF"/>
<path d="M637.573 315.086C637.573 315.086 647.96 319.983 644.11 325.506C641.464 329.294 633.996 329.824 633.996 329.824L661.931 328.271L637.573 315.086Z" fill="#006EEF"/>
<path d="M439.142 150.943C439.142 150.943 441.883 155.475 448.467 156.512C452.362 157.146 456.355 156.606 459.943 154.959L462.062 158.454L444.839 165.964L439.142 150.943Z" fill="#006EEF"/>
<path d="M646.212 557.599C646.212 557.599 647.663 562.292 652.888 566.238C660.971 572.327 666.412 568.573 666.412 568.573L682.857 550.834C682.857 550.834 675.212 556.8 671.071 554.462C665.132 551.093 665.132 540.239 665.132 540.239L656.059 524.155C656.059 524.155 658.131 532.961 658.002 539.181C657.875 545.396 651.656 551.482 651.656 551.482L646.212 557.599Z" fill="#006EEF"/>
<path d="M657.865 478.317C657.865 478.317 650.871 481.942 649.444 486.082C648.021 490.222 650.588 496.438 650.588 496.438C650.588 496.438 644.7 483.648 644.874 483.56L657.865 478.317Z" fill="#006EEF"/>
<path d="M582.885 520.145C582.885 520.145 587.678 515.223 593.508 516.257C599.334 517.288 602.959 523.251 602.959 523.251L596.484 503.699L582.885 520.145Z" fill="#006EEF"/>
<path d="M492.558 541.925C492.558 541.925 496.637 536.846 500.525 536.846C502.754 536.808 504.952 537.392 506.87 538.532L500.781 568.962C500.781 568.962 499.866 557.435 497.934 551.998C496.586 548.424 494.777 545.038 492.558 541.925Z" fill="#006EEF"/>
<path d="M471.255 622.835C473.986 623.76 476.945 623.76 479.676 622.835C484.205 621.278 487.185 615.711 487.185 615.711L481.092 629.699L471.255 622.835Z" fill="#006EEF"/>
<path d="M506.87 552.902C506.87 552.902 506.611 549.147 509.202 547.854C511.792 546.56 515.284 547.854 515.284 547.854L505.87 543.536L506.87 552.902Z" fill="#006EEF"/>
<path d="M482.416 635.269C482.287 635.655 478.791 640.061 479.245 643.427C479.696 646.792 484.079 650.032 484.079 650.032L475.791 645.629L482.416 635.269Z" fill="#006EEF"/>
<path d="M391.503 554.977C391.503 554.977 385.564 558.216 383.738 565.08C381.71 572.763 384.653 577.508 384.653 577.508L374.884 560.807L391.503 554.977Z" fill="#006EEF"/>
<path d="M403.787 605.355C401.961 602.765 408.9 612.097 415.443 614.035C421.14 615.715 429.22 611.704 429.22 611.704L414.017 620.384L403.787 605.355Z" fill="#006EEF"/>
<path d="M379.443 554.851C379.443 554.851 375.818 549.925 372.972 548.116C370.125 546.307 367.79 547.335 367.79 547.335L354.71 562.36C354.71 562.36 358.588 558.769 363.39 558.862C369.995 558.995 373.364 566.504 373.364 566.504L379.443 554.851Z" fill="#006EEF"/>
<path d="M407.804 637.484C408.835 637.081 413.627 632.03 412.986 627.889C412.341 623.752 410.422 621.81 410.422 621.81L417.382 630.739L407.804 637.484Z" fill="#006EEF"/>
<path d="M280.118 560.548C280.118 560.548 275.714 563.395 274.549 567.402C273.384 571.406 275.714 577.502 275.714 577.502L271.831 578.926C271.831 578.926 270.406 574.912 267.427 574.267C264.448 573.625 262.507 575.949 262.507 575.949C262.507 575.949 261.451 572.212 261.648 571.928C261.844 571.645 280.118 560.548 280.118 560.548Z" fill="#006EEF"/>
<path d="M329.584 679.553C329.584 679.553 332.563 678.259 333.732 675.28C334.902 672.3 333.732 668.026 333.732 668.026L336.711 666.197C336.711 666.197 338.538 668.784 344.108 668.784C347.467 668.774 350.795 668.153 353.935 666.958L355.157 669.136L331.261 682.243L329.584 679.553Z" fill="#006EEF"/>
<path d="M450.184 795.027C450.99 794.259 453.515 787.77 451.348 784.179C449.184 780.588 446.682 779.517 446.682 779.517L458.656 782.889L450.184 795.027Z" fill="#006EEF"/>
<path d="M302.392 785.053C302.392 785.053 299.139 790.132 300.839 794.979C302.666 800.161 307.655 803.53 307.655 803.53L303.37 806.622C303.37 806.622 300.135 803.854 297.229 804.793C294.324 805.735 293.803 808.708 293.803 808.708C293.803 808.708 291.021 805.994 291.062 805.649C291.103 805.301 302.392 785.053 302.392 785.053Z" fill="#006EEF"/>
<path d="M402.013 867.243C402.013 867.243 404.416 863.652 403.839 860.508C403.04 856.259 398.142 854.979 398.142 854.979L398.746 850.145C398.746 850.145 405.139 852.555 410.317 850.521C413.505 849.272 416.185 846.995 417.929 844.049L420.079 845.326L405.917 868.625L402.013 867.243Z" fill="#006EEF"/>
<path d="M371.036 748.254C371.036 748.254 373.582 743.636 375.34 742.824C377.589 741.786 380.822 742.824 380.822 742.824L375.34 738.253L371.036 748.254Z" fill="#006EEF"/>
<path d="M389.88 727.924C389.88 727.924 387.436 732.368 388.119 737.226C388.723 741.544 393.301 745.599 393.301 745.599L383.112 738.779L389.88 727.924Z" fill="#006EEF"/>
<path d="M435.507 768.307C435.507 768.307 441.958 771.573 446.307 768.733C450.536 765.993 452.178 761.221 452.178 761.221L454.004 769.856C454.004 769.856 458.236 773.055 459.875 775.987C461.516 778.919 462.585 781.254 461.574 783.325C460.564 785.394 460.564 784.36 460.564 784.36L435.507 768.307Z" fill="#006EEF"/>
<path d="M478.075 712.199C478.338 712.018 478.338 718.5 486.202 717.278C496.712 715.656 496.295 699.238 496.295 699.238L497.691 717.8L474.709 721.428L478.075 712.199Z" fill="#006EEF"/>
<path d="M501.146 728.609C500.374 729.142 499.487 729.487 498.558 729.623C497.63 729.756 496.684 729.674 495.79 729.384C492.595 728.435 488.823 721.789 488.823 721.789L501.835 703.747C501.835 703.747 502.149 714.806 505.812 718.161C510.041 722.049 518.844 719.888 518.844 719.888L501.146 728.609Z" fill="#006EEF"/>
<path d="M574.771 705.45C574.771 705.45 579.604 703.812 581.243 701.569C582.215 700.255 582.649 698.62 582.454 696.999L594.452 698.033C594.452 698.033 586.772 703.385 582.195 704.938C577.618 706.492 574.771 705.45 574.771 705.45Z" fill="#006EEF"/>
<path d="M498.108 676.622C498.108 676.622 496.442 670.102 497.934 667.986C500.006 665.051 502.961 667.471 502.961 667.471L492.947 661.074L498.108 676.622Z" fill="#006EEF"/>
<path d="M465.691 597.193C463.944 598.081 462.425 599.361 461.254 600.934C460.087 602.505 459.298 604.331 458.957 606.259C458.138 610.502 460.899 613.769 460.899 613.769L450.666 604.901L465.691 597.193Z" fill="#006EEF"/>
<path d="M649.39 622.435C649.39 622.435 659.62 625.51 661.876 634.143C663.566 640.594 660.582 649.424 660.582 649.424C660.582 649.424 667.327 638.437 666.979 633.088C666.631 627.739 665.948 626.207 665.948 626.207L649.39 622.435Z" fill="#006EEF"/>
<path d="M668.269 640.014C671.447 639.939 674.594 639.355 677.591 638.287C682.162 636.56 683.721 634.491 684.24 633.454C684.756 632.416 669.218 628.883 669.218 628.883L668.269 640.014Z" fill="#006EEF"/>
<path d="M717.045 525.626C717.045 525.626 725.176 515.205 727.749 513.021C733.685 507.969 734.655 514.393 734.655 514.393C734.655 514.393 736.641 507.747 736.73 502.999C736.815 498.251 734.224 490.308 734.224 490.308C734.224 490.308 726.367 507.573 723.865 512.58C721.36 517.588 717.045 525.626 717.045 525.626Z" fill="#006EEF"/>
<path d="M577.836 376.272C577.836 376.272 571.897 372.514 573.17 368.24C574.447 363.963 579 362.68 579 362.68L559.189 367.343C562.111 368.568 564.965 369.95 567.736 371.486C571.02 373.254 574.389 374.848 577.836 376.272Z" fill="#006EEF"/>
<path d="M490.182 350.737C500.433 344.467 511.041 338.714 522.162 334.16C534.337 329.264 546.946 325.518 559.821 322.971C563.276 322.264 561.815 316.978 558.367 317.686C545.277 320.354 532.409 324.036 520.049 329.143C508.741 333.898 497.822 339.534 487.394 346C484.39 347.829 487.138 352.584 490.165 350.737H490.182Z" fill="#006EEF"/>
<path d="M577.895 318.996C584.554 317.476 591.282 316.299 598.061 315.469C601.515 315.012 601.556 309.53 598.061 309.987C590.794 310.857 583.578 312.1 576.437 313.71C573.007 314.514 574.461 319.8 577.895 318.996Z" fill="#006EEF"/>
</svg>
